<?xml version="1.0" encoding="UTF-8"?>
<svg id="Calque_1" data-name="Calque 1" xmlns="http://www.w3.org/2000/svg" viewBox="0 0 353.23 427.9">
  <defs>
    <style>
      .cls-1 {
        fill: #ffee09;
      }
    </style>
  </defs>
  <g id="lxrX5O.tif">
    <path class="cls-1" d="M233.18,304.21c.08,8.74-4.77,15.8-12.57,19.04-9.56,3.97-18.97,2.22-28.46-1.65-9.64-4.32-18.84-8.91-28.03-14.1-5.2-2.94-9.98-5.95-14.77-9.56l-18.56,15.74c-3.44,2.92-7.13,5.19-11.24,6.96-8.26,3.55-17.47.53-20.56-8.02-3.18-8.8-.53-19.32,2.45-28.12l-11.51,2.63c-3.84.88-7.7.85-11.58.46-14.44-1.54-21.23-15.84-19.16-29.38.86-5.63,2.6-10.81,5.05-16.1,11.79-25.5,26.29-49.59,43.1-72.18,11.14-24.29,29.69-56.42,51.85-71.35,7.89-5.31,16.26-8.51,25.81-6.76,3.18-1.59,6.43-2.76,9.99-3.25,9.5-.53,16.22,4.97,20.01,13.3,11.78-3.99,26.08-6.81,36.9-.44,4.22,2.48,6.93,6.24,9.09,10.58,6.71,13.53,8.73,28.64,5.08,43.43,8.62,6.5,15.17,14.99,15.81,26.25l3.46-2.63c.25-.19,1.43-.24,1.5.05s.1.71.1,1.06l-5.25,4.49c-.88,12.75-9.45,25.51-17.49,35.34-5.71,6.98-11.45,13.66-18.05,19.76l-6.66,6.17,30.5-7.65c.47-.12,1.48.36,1.69.74s.18,1.57-.18,1.94l-6.07,6.33c-11.49,11.17-25.53,20.34-41.61,23.99l6.99,19.79c1.5,4.23,2.28,8.46,2.37,13.11ZM201.97,103.21l7.54-3.64c-3.88-6.37-12.01-9.38-19.37-5.91,5.06,2.12,8.83,5.39,11.83,9.56ZM145.08,126.1c3.55-3.55,6.91-6.55,10.1-10.12,3.7-4.14,7.58-7.57,12.11-10.79l8.95-7.42,4.65-3.52c-8.67-.42-17.25,4.1-24.01,9.49-9.91,7.89-17.33,17.18-24.73,27.44-5.9,8.98-11.58,17.79-16.42,27.63,9.5-11.38,18.86-22.21,29.35-32.71ZM195.12,106.86l4.23-2.36c-3.17-4.63-7.67-7.57-12.87-9.35-2.99,1.76-5.68,3.58-8.17,5.65,6.75-.87,12.62,1.53,16.81,6.06ZM253.21,126.16l-2.54,15.39,2.34,5.53,10.54,6.48c3.3-14.31.97-28.61-5.6-41.31-2.32-4.48-5.49-7.91-10.26-9.83-9.44-3.81-21.77-1.23-31.51,2.05.99,3.25,1.45,6.42,1.66,10.13,8.94-3.13,18.22-3.87,27.41-1.91l-1.51,6.81c3.06,1.5,5.95,3.16,8.61,5.08.32.23.73,1.16.87,1.58ZM129.75,166.87c2.02-2.04,3.84-3.7,5.46-5.94,15.05-20.85,33.89-38.51,56.02-51.77-9.86-9.52-23.53-.64-31.37,8.3-13.16,15.01-22.77,30.78-30.1,49.4ZM203.77,114.74l7.62-.44-2.16-7.38-5.23,2.27-.23,5.55ZM200.22,116.08c.79-2.49.83-3.56.93-5.61l-2.83,1.41,1.9,4.2ZM241.62,118.64l1.18-4.43c-6.04-.86-11.84-.93-17.57.41,5.9.74,11.15,1.64,16.39,4.02ZM195.44,116.54l-.94-2.63c-4.13,2.33-7.98,4.62-11.98,7.61,4.28-1.74,8.34-3.44,12.92-4.97ZM240.97,121.92c-3.79-1.53-7.78-2.84-12.03-3.23,3.92,2.01,7.35,4.52,10.66,7.58l1.37-4.34ZM199.91,146.94l10.3-4.72,2.25-12.86c.16-3.5,0-6.76-.32-10.4-3.88,1.95-7.16,3.88-10.69,6.16l.14,4.87c-.2,5.82-.96,11.26-1.68,16.95ZM231.4,134.38c.71-.25,2.18.92,2.79,1.31.65.42,2.27-.22,2.53-.9l1.46-3.71c-5.4-5.89-12.45-10.11-20.43-11.55l-.76,7-.49,10.03,2.26-2.06c.52-.47,2.34-.09,2.65.53s.43,1.65.45,2.65l9.54-3.3ZM201.29,122.96l4.96-3.16-4.05.81c-.77.15-1.23,1.69-.9,2.35ZM196.02,125.44c.53-.71.92-1.79.82-2.98l-6.62,2.87,5.8.12ZM247.97,136.75l1.61-10.02-6.79-3.98-1.59,5.19c2.52,2.76,4.5,5.47,6.77,8.81ZM168.49,162.08c5.26-9.61,11.18-18.06,18.11-26.06l7.17-7.2c.69-.69,1.42-1.91,1.98-2.8-9.36-1.56-15.45,6.62-20.47,13.99l-7.24,10.62-10.61,16.98,11.06-5.53ZM185.49,154.46l9.56-4.89c1.02-6.64,2.01-13.25,2.12-20.23l-9.53,13.03-12.44,16.44,10.28-4.35ZM155.72,168.67l11.6-18.03,9.01-13.14,5.85-7.49c-6.95,4.3-12.95,9.27-18.93,14.81-12.39,11.84-23.36,24.81-32.95,39.2,8.41-5.65,16.58-10.72,25.41-15.35ZM242.16,141.1l4.38,2.3c-2.03-4-4.18-7.36-7.01-10.77l-.52,1.84c1.4-.02,2.29.73,2.49,2.08l.67,4.54ZM98.45,206.73c7.74-10.65,15.2-20.62,23.48-30.42,4.15-13.74,10.15-26.28,17.49-38.83-11.48,11.73-21.46,24.23-31.23,37.22-4.32,10.38-8.05,20.86-9.74,32.03ZM238.55,150.27l-.4-6.94c-.34-.42-1.38-1.07-1.78-1.03l-3.83,8.14,6.01-.17ZM220.84,149.77l6.47-6.66-6.1,2.04-.37,4.62ZM128.31,180.74c9.48-13.52,19.74-25.56,30.92-37.06-12.25,10.89-22.69,23.4-30.92,37.06ZM245.12,150.45l.6-2.95-3.16-1.73.16,4.62,2.4.07ZM216.15,152.68l.55-5.85-2.45.95-1.56,5.71,3.46-.81ZM207.79,155.06l1.04-4.05-4.13,4.87,3.09-.82ZM198.39,156.56l3.56-4.22-3.1,1.17-.46,3.05ZM234.17,164.74c.37-.29,1.57-.3,1.82,0,1.04,1.25,1.05,2.4,1.53,1.67l.4-.6.66-11.48-8.07.34-10.48,20.74,1.97-1.16,12.18-9.51ZM243.95,154.59l-1.28-.18.06,4.04,1.22-3.86ZM251.35,159.29l-.69-4.15-3.14-.37-2.14,7.47,5.97-2.96ZM217.74,170.31l7.74-15.13-2.95.4c-.84.11-2.46.79-2.63,1.8l-2.16,12.94ZM167.63,171.1c-2.25,4.46-4,8.82-4.72,13.81,8.51-10.09,18.47-18.08,30.15-23.83l.97-5.54c-4.13,1.45-7.63,3.24-11.21,5.56l-10.83,7.01-4.34,2.99ZM256.2,173.31c2.49-4.8,4.46-9.76,6.21-15.12l-3.18,1.45-3.02,5.51v8.16ZM277.65,185.15c.58-6.11-1.04-11.63-4.33-16.56-2.3-3.39-5.1-6.18-8.34-9.04-2.3,7.79-5.69,14.6-9.77,21.47-1.59,9.98-4.64,19.27-8.48,28.75l30.92-24.63ZM191.82,184.47l6.59-8.52c2.82-5.16,5.23-10.21,7.41-15.96l-6.79,2.69-2.7,3.65-4.52,18.15ZM210.72,180.3c1.76-5.65,2.68-11.1,3.83-17l-3.47,3.95-.36,13.05ZM240.9,175.26l10.46-9.92c.37-.36.49-1.37.22-1.74l-8.11,4.27-2.57,7.39ZM244.69,191.12c2-6.72,4.21-12.73,7.03-18.92l.08-5.88-11.66,11.36c-2.07,10.63-5.64,20.28-10.38,30.1,5.43-5.23,10.28-10.65,14.93-16.66ZM158.72,207.01l10.01-5.11c6.24-12.1,13.36-23.37,21.46-34.67-12.16,6.75-21.84,16.19-29.47,27.51l-2,12.27ZM150.78,179.07l10.8-8.63-8.59,4.36-2.2,4.27ZM234.29,181.72c.92-1.67,1.58-3.36,1.87-5.05l.95-5.58-3.4,1.72c-4.81,9.11-10.62,17.27-16.89,25.51l17.47-16.6ZM196.95,187.25l9.77-5,.24-10.13c-1.72,2.12-3.63,4.05-4.96,6.36l-5.06,8.77ZM251.37,175.55c-1.86,4.13-3.54,8.45-4.91,13.11,3.74-4.23,4.98-6.92,4.91-13.11ZM119.4,210.79c8.85-10.61,18.25-20.33,28.69-29.36l3.29-5.7c-9.75,5.48-18.85,11.48-27.63,18.48l-2.91,4.9c-.62,3.86-1.16,7.41-1.44,11.68ZM184.12,193.97c1.96-5.98,3.87-11.68,5.21-17.85-5.21,7.33-9.56,14.7-13.84,22.23l8.63-4.38ZM210.88,199.33c6.24-7.35,11.74-14.81,16.62-23.14-1.6.62-3.41,1.32-4.69,2.42-2.93,2.51-5.85,4.81-8.46,7.62-1.35,1.45-4.31,10.34-3.47,13.1ZM146.69,213.86c.66-2.04,2.06-4.22,2.36-6.32.88-6.17,2.27-11.81,4.77-17.53l6.63-13.53c-5.74,4.32-10.75,8.7-16.02,13.41-7.25,13.32-13.95,26.58-20.17,40.41l3.54,1.94c4.64-7.9,11.29-13.46,18.89-18.37ZM151.68,202.09c2.18-3.94,4.14-7.37,6.59-10.93l2.41-11.06-4.47,8.64c-1.89,4.37-3.76,8.56-4.53,13.35ZM110.03,202.07c1.39-1.64,3.04-3.01,4.04-4.69,1.65-2.77,2.91-5.62,4.4-8.49l1.19-5.76c-7.84,9.58-14.94,19.18-22.02,29.2-.47,4.78-.73,9.11-.31,13.94,2.3-8.98,6.55-16.98,12.69-24.21ZM92.37,270.49c-.73-.18-1.25-1.35-1.14-1.88l.69-3.21-3.33.23c-.55.04-1.61-.49-1.84-.93-.2-.37-.28-1.41-.09-1.8l4.84-9.8c-7.05.75-13.5,1.23-20.39,1.49-.39-.14-1.17-.5-1.23-.83-.05-.26.04-.66.14-1.17,7.72-14.14,15.96-27.69,25.06-41.04,1.08-9.4,3.4-18.15,6.36-27.17-9.44,13.37-17.51,27.17-25.24,41.47l-8.51,17.2c-2.58,5.21-4.35,10.56-5.07,16.34-1.45,11.52,3.91,23.16,15.8,24.8,4.33.6,8.55.1,12.85-.68l11.57-2.76,2.48-7.1-12.95-3.16ZM211.24,205.65l1.52,15.05c8.26-11.65,14.82-23.55,20.51-36.25l-10.52,10.17-11.5,11.02ZM182.64,211.3c8.78-7.47,16.93-15.48,24.14-24.46l-13.81,6.98-9.32,14.55c-.54.84-.87,1.84-1.01,2.93ZM238.83,241.29c4.83-4.19,8.88-8.34,13.05-12.9,6.41-7,12.46-14,17.59-21.98,3.51-5.47,6.33-10.96,7.63-17.43l-34.13,29.07-3.78,7.58-.46,6.41.1,9.25ZM240.79,212.4c3.24-6.87,5.82-13.74,7.8-21.32l-4.7,5.75c-1.3,5.17-2.53,10.06-3.1,15.57ZM118.44,223.94c1.46,2.21,2.87,4.12,4.78,5.68,5.83-12.63,11.83-24.41,18.35-36.86-8.53,7.75-15.7,16.23-22.84,24.94l-.29,6.24ZM180.77,227.47l8.11-6.38,14.07-23.91c-9.58,9.47-17.93,19.56-25.95,30.31h3.77ZM216.34,234.07l23.07-18.4,3.06-17.01c-5.78,6.54-11.62,12.55-18.01,18.37-3.25,5.02-6.49,9.54-10.25,14.1l.28,2.18c.06.44.99.67,1.85.76ZM162.53,225.47l6.36-4.01c3.92-7.4,8.02-14.17,12.6-21.64l-9.37,4.81c-3.55,6.98-6.68,13.62-9.6,20.84ZM155.47,208.75l.56-6.23-3.76,7.97,3.19-1.73ZM158.2,224.18l7.2-15.95-7.24,3.6c-.23,4.3-.42,8.09.04,12.35ZM203.79,230.29l3.47-2.65c.73-.55,1.71-1.67,2.1-2.49l-1.77-15.76c-.93.73-2.33,1.8-2.84,2.9l-7.63,16.52,6.68,1.47ZM103.18,228.46l5.13-17c-5.07,7.44-7.88,16.05-8.13,24.84l3-7.84ZM154.93,223.26l-.02-9.66-3.26,1.85c.82,2.87,1.8,5.28,3.28,7.81ZM108.6,224.77l4.03-5.46-.46-3.57-.93,2.01c-1.07,2.33-2.07,4.46-2.64,7.02ZM155.79,229.49l-.44-3.27c-2.36-2.83-3.8-6.01-5.12-9.83-1.75,5.29-3.02,10.54-3.91,16.33l5.85-1.26,3.61-1.98ZM96.53,243.55l-.72-7.15c-1.01-6.44-1.6-12.64-1.33-19.32-7.72,11.56-14.59,22.79-21.33,34.97,6.62-.2,13.02-.75,19.66-1.58l3.72-6.93ZM189.88,227.78l2.79.44,4.01-8.49-3.74,3.24-3.06,4.82ZM142.07,233.31l2.68-13.33c-5.24,3.76-9.67,7.98-13.02,13.31,3.53.46,7.03.59,10.34.02ZM108.62,247.64l6.51-1.67c-.94-7.51-1.05-14.49-1.11-22.01l-8.19,11.96-1.38,6.95,4.17,4.77ZM165.13,228.81l1.32-2.92-5.39,3.41,4.07-.49ZM225.68,238.62l7.95-12.5-12.2,10.3,4.25,2.21ZM219.5,235.51l9.84-8.39-.27-.3-10.45,8.44.88.24ZM235.2,244.38l3.08-2.73.11-14.84-8.88,13.93,5.69,3.64ZM121.46,233.51l-3.09-2.41.48,8.02,2.62-5.61ZM168.67,251.86c4.51-6.82,9.15-13.13,13.38-20.45l-13.44,8.68-3.83,6.42,3.89,5.34ZM183.3,244.77l7.3-12.61-3.44-.28-11.56,17.64,7.7-4.76ZM199.46,233.57l-4.4-.86-3.29,6.3,7.69-5.44ZM160.83,237.5l1.81-3.9-2.93.52,1.13,3.38ZM123.71,243.39l.84-3.42,1.36-4.19-3.47-1.46-3.28,7.66.25,2.71,4.3-1.29ZM150.68,245.35l3.27-9.88-8.31,1.72-.42,10.64,5.46-2.48ZM195.06,251.02l16.41-13.07c.45-.36-.83-1.78-1.35-1.68-.48.09-1.15.41-1.6.9-5.13,5.59-11.12,9.75-16.97,14.5-3.39,2.75-6.15,6.03-9.25,8.88,4.66-3.01,8.5-6.14,12.75-9.52ZM138.42,237.93l-8.77-.66-1.63,4.67,10.4-4.01ZM192.54,245.53c2.33-2.76,4.73-4.95,6.9-8.08l-11.59,7.99-3.51,5.62,8.21-5.53ZM158.88,241.24l-1.19-3.29-1.58,4.65,2.78-1.35ZM141.11,249.55l.18-10.3-13.9,5.41c-.53,3.2-.58,6.32-.42,9.87l14.14-4.98ZM217.72,248.76l5.51-6.79-5.27-2.63-1.93,1.78,1.69,7.64ZM193.73,257.56l18.18-15.59.06-1.46-22.7,18.13c1.56-.12,2.95-.49,4.46-1.08ZM234.71,250.96c-3.51,5.89-7.56,10.51-12.44,14.98l.86,2.53c6.2-1.63,11.64-3.47,17.13-6.35,9.21-4.98,17.54-10.93,24.96-19.05l-25.82,6.47-.2,2.27-.35-2.09-4.15,1.24ZM214.68,252.47l-2.01-8.61-14.87,12.77,16.88-4.16ZM229.46,248.74l2.29-1.71-4.76-2.97-5.05,6.54,7.52-1.87ZM123.06,255.72l.08-9.62-3.55.99,1.73,9.06,1.74-.43ZM151.68,259.17l4.91-12.34-2.31,1.12-4.33,16.04c1.56-1.38,1.12-3.28,1.72-4.81ZM113.24,252.91l1.82-4.47-4.68,1.13,2.86,3.34ZM159.38,259.18l7.56-4.4-3.95-5.19-1.49,2.36-2.12,7.23ZM117.09,257.2l-1.38-6.88-1.64,3.68,3.02,3.2ZM146.28,260.27l2.82-9.89-3.78,1.54.96,8.35ZM111.28,257.24l-5.53-6.47-1.94.3,4.23,6.81c.5.8,1.19,1.26,2.07,1.15.6-.07,1.58-1.32,1.17-1.79ZM175.46,256.09l3.26-4.71-6.56,3.95c.33.48.96,1.17,1.38,1.48.35.26,1.66-.36,1.92-.73ZM103.32,260.06l-4.62-8.31-2.46,9.35,7.09-1.03ZM143.28,266.94c-.9-4.8-1.46-8.83-1.83-13.32l-13.93,4.9c.74,3.72,1.66,6.97,2.98,10.03l12.79-1.62ZM220.9,261.54l4.97-5.34-5.5,3.21.54,2.12ZM93.03,260.89l.77-3.74-2.07,4.17c.15.21,1.22-.06,1.3-.43ZM194.33,267.9c2.86-1.46,5.81-2.19,8.28-3.83,2.8-1.86,4.96-4.36,7.45-6.92l-18.33,4.59-4.39,3.81,7,2.36ZM125.71,267.26l-1.96-7.11c-.09-.32-.89-.41-1.31-.37-.28.03,0,.59.18.97.76,2.37,1.38,4.83,3.08,6.5ZM121.38,270.52l-.67-2.45-5.55-6.37-3.37.73c2.92,3.1,5.95,5.8,9.59,8.09ZM210.07,270.01l7.77-5.62-.87-2.94-10.52,5.52c-1.02.54-1.94,1.47-3.03,2.57l6.65.46ZM106.39,270.63l1.74-4.81-2.2-2.25-10.63,1.5-.58,2.71,11.67,2.85ZM173.71,274.95l9.34-8.06-2.9-1.42-11.75,6.99-3.76,4.4,9.07-1.91ZM117.52,273.37c-3.08-2.12-5.55-4.04-8.28-6.48l-1.44,4.18,9.72,2.3ZM189.75,269.68l-4.95-2-6.88,5.99,11.83-3.99ZM166.03,268.29l-4.55,1.05-3.44,4.8c3-.75,6.72-3.63,7.99-5.84ZM151.8,275.17l.54-3.2c-.62-.15-1.97.07-2.52.55-.72.64-.4,2.98.7,3.72.28.19,1.21-.68,1.27-1.07ZM204.78,272.9l-4.74-.62-6.15,4.97c3.72-.96,7.13-2.46,10.89-4.35ZM191.66,317.17c9.44,4.6,20.66,6.58,29.74,1.49,9.56-5.37,9.2-16.58,5.73-26.41l-7.04-19.97-7.46.87c-8.94,5.65-18.81,9.32-29.3,10.98l-10.67,5.07c-5.7,2.24-11.37,3.7-17.56,3.81l-2.79,2.47c7.33,5.22,14.52,9.6,22.4,13.44l16.94,8.26ZM169.63,280.82l11.64-.5c3.47-2.06,6.7-4.09,9.9-6.66-6.8,2.36-13.13,4.57-20.08,6.04l-1.46,1.12ZM118.06,276.79l-11.4-2.8-2.22,6.29,13.63-3.49ZM142.73,276.94l.38-2.94-7.83,2.1c2.48.58,4.91.73,7.45.84ZM130.13,312.14l17.89-15.17-4.87-3.89c-1.29-.62-2.84-.69-2.58-2.84-5.42-2.38-9.94-5.98-13.44-10.79-.34-.34-1.56-.87-2.06-.75l-21.8,5.47c-3.06,8.46-5.3,17.39-3.33,26.37,1.44,5.73,6.13,9.95,12.06,10.06s13.11-4.21,18.12-8.46ZM141.61,281.62l-3.87-.45,2.76,3.39,1.11-2.95ZM147.65,287.9c3.66.72,6.59.93,9.97.58l5.01-4.27-4.08-.77-4.41,4.3c-.39.38-1.76.36-2.16.05-.34-.26-.98-1-1-1.45l-.09-2.66-3.24,4.22ZM171.48,285.03l-6.36-.47-4.04,3.47c3.81-.72,7.16-1.69,10.4-3Z"/>
  </g>
</svg>